<svg xmlns="http://www.w3.org/2000/svg" xmlns:xlink="http://www.w3.org/1999/xlink" width="500" zoomAndPan="magnify" viewBox="0 0 375 374.999991" height="500" preserveAspectRatio="xMidYMid meet" version="1.0"><defs><clipPath id="af6c6367c9"><path d="M 141 205 L 233 205 L 233 282.5625 L 141 282.5625 Z M 141 205 " clip-rule="nonzero"/></clipPath><clipPath id="5dfb53349c"><path d="M 210 157 L 260.230469 157 L 260.230469 203 L 210 203 Z M 210 157 " clip-rule="nonzero"/></clipPath><clipPath id="20bae47e7d"><path d="M 145 92.0625 L 199 92.0625 L 199 148 L 145 148 Z M 145 92.0625 " clip-rule="nonzero"/></clipPath><clipPath id="072c8832f9"><path d="M 114.730469 143 L 180 143 L 180 238 L 114.730469 238 Z M 114.730469 143 " clip-rule="nonzero"/></clipPath></defs><path fill="#ffffff" d="M 181.5625 149.785156 L 141.316406 237.699219 L 217.578125 203.269531 L 208.628906 156.527344 L 181.5625 149.785156 " fill-opacity="1" fill-rule="nonzero"/><path fill="#ffffff" d="M 182.472656 147.804688 L 208.183594 154.210938 L 199.738281 110.089844 Z M 182.472656 147.804688 " fill-opacity="1" fill-rule="nonzero"/><path fill="#ffffff" d="M 233.203125 273.519531 L 233.203125 198.558594 L 219.996094 204.523438 Z M 233.203125 273.519531 " fill-opacity="1" fill-rule="nonzero"/><path fill="#ffffff" d="M 201.867188 109.820312 L 210.472656 154.78125 L 258.886719 166.839844 Z M 201.867188 109.820312 " fill-opacity="1" fill-rule="nonzero"/><g clip-path="url(#af6c6367c9)"><path fill="#ffffff" d="M 141.707031 239.871094 L 232.828125 282.933594 L 217.988281 205.429688 Z M 141.707031 239.871094 " fill-opacity="1" fill-rule="nonzero"/></g><path fill="#ffffff" d="M 115.898438 178.914062 L 153.242188 141.570312 L 143.722656 94.703125 Z M 115.898438 178.914062 " fill-opacity="1" fill-rule="nonzero"/><g clip-path="url(#5dfb53349c)"><path fill="#ffffff" d="M 210.914062 157.097656 L 219.582031 202.363281 L 233.65625 196.007812 L 260.273438 169.390625 L 210.914062 157.097656 " fill-opacity="1" fill-rule="nonzero"/></g><g clip-path="url(#20bae47e7d)"><path fill="#ffffff" d="M 180.359375 147.277344 L 198.667969 107.285156 L 145.371094 92.058594 L 155.320312 141.042969 L 180.359375 147.277344 " fill-opacity="1" fill-rule="nonzero"/></g><g clip-path="url(#072c8832f9)"><path fill="#ffffff" d="M 179.453125 149.261719 L 154.734375 143.101562 L 114.746094 183.089844 L 139.164062 237.261719 L 179.453125 149.261719 " fill-opacity="1" fill-rule="nonzero"/></g></svg>