<svg xmlns="http://www.w3.org/2000/svg" xmlns:xlink="http://www.w3.org/1999/xlink" width="500" zoomAndPan="magnify" viewBox="0 0 375 374.999991" height="500" preserveAspectRatio="xMidYMid meet" version="1.0"><defs><g/><clipPath id="35a16c86d7"><rect x="0" width="189" y="0" height="22"/></clipPath><clipPath id="a092ea1d9c"><path d="M 154 180 L 220 180 L 220 236.453125 L 154 236.453125 Z M 154 180 " clip-rule="nonzero"/></clipPath><clipPath id="977a36ee04"><path d="M 204 146 L 239.785156 146 L 239.785156 179 L 204 179 Z M 204 146 " clip-rule="nonzero"/></clipPath><clipPath id="cfde9cf7b1"><path d="M 157 99.953125 L 196 99.953125 L 196 140 L 157 140 Z M 157 99.953125 " clip-rule="nonzero"/></clipPath><clipPath id="6bc5d1d0e1"><path d="M 135.535156 136 L 182 136 L 182 204 L 135.535156 204 Z M 135.535156 136 " clip-rule="nonzero"/></clipPath></defs><g transform="matrix(1, 0, 0, 1, 100, 254)"><g clip-path="url(#35a16c86d7)"><g fill="#ffffff" fill-opacity="1"><g transform="translate(0.409609, 16.444732)"><g><path d="M 4.761719 -10.796875 L 2.871094 -10.796875 L 2.871094 -5.949219 L 4.773438 -5.949219 C 5.757812 -5.949219 6.480469 -6.140625 6.941406 -6.527344 C 7.40625 -6.910156 7.636719 -7.417969 7.636719 -8.046875 L 7.636719 -8.671875 C 7.636719 -9.09375 7.546875 -9.46875 7.359375 -9.785156 C 7.171875 -10.105469 6.871094 -10.355469 6.453125 -10.53125 C 6.035156 -10.707031 5.472656 -10.796875 4.761719 -10.796875 Z M 2.871094 -4.796875 L 2.871094 0 L 1.535156 0 L 1.535156 -11.949219 L 4.789062 -11.949219 C 5.777344 -11.949219 6.578125 -11.824219 7.195312 -11.566406 C 7.8125 -11.3125 8.269531 -10.945312 8.5625 -10.464844 C 8.855469 -9.980469 9 -9.394531 9 -8.707031 L 9 -8.011719 C 9 -7.253906 8.773438 -6.609375 8.320312 -6.082031 C 7.867188 -5.550781 7.1875 -5.191406 6.277344 -5.003906 L 9.433594 0 L 7.929688 0 L 4.949219 -4.796875 Z M 2.871094 -4.796875 "/></g></g></g><g fill="#ffffff" fill-opacity="1"><g transform="translate(23.998313, 16.444732)"><g><path d="M 5.628906 0.171875 C 4.714844 0.171875 3.921875 0.0078125 3.25 -0.320312 C 2.582031 -0.648438 2.0625 -1.140625 1.691406 -1.789062 C 1.324219 -2.4375 1.140625 -3.242188 1.140625 -4.195312 L 1.140625 -7.734375 C 1.140625 -8.699219 1.324219 -9.503906 1.691406 -10.152344 C 2.0625 -10.804688 2.582031 -11.292969 3.25 -11.625 C 3.921875 -11.957031 4.714844 -12.121094 5.628906 -12.121094 C 6.542969 -12.121094 7.335938 -11.957031 8.003906 -11.625 C 8.671875 -11.292969 9.191406 -10.804688 9.558594 -10.160156 C 9.929688 -9.511719 10.113281 -8.707031 10.113281 -7.746094 L 10.113281 -4.207031 C 10.113281 -3.25 9.929688 -2.449219 9.558594 -1.792969 C 9.191406 -1.140625 8.671875 -0.648438 8.003906 -0.320312 C 7.335938 0.0078125 6.542969 0.171875 5.628906 0.171875 Z M 5.628906 -10.96875 C 4.570312 -10.96875 3.785156 -10.675781 3.269531 -10.089844 C 2.757812 -9.503906 2.5 -8.71875 2.5 -7.734375 L 2.5 -4.191406 C 2.5 -3.222656 2.757812 -2.445312 3.269531 -1.859375 C 3.785156 -1.273438 4.570312 -0.980469 5.628906 -0.980469 C 6.683594 -0.980469 7.46875 -1.273438 7.980469 -1.859375 C 8.492188 -2.445312 8.75 -3.230469 8.75 -4.210938 L 8.75 -7.753906 C 8.75 -8.726562 8.492188 -9.503906 7.980469 -10.089844 C 7.46875 -10.675781 6.683594 -10.96875 5.628906 -10.96875 Z M 5.628906 -10.96875 "/></g></g></g><g fill="#ffffff" fill-opacity="1"><g transform="translate(48.900846, 16.444732)"><g><path d="M 1.535156 0 L 1.535156 -11.949219 L 2.871094 -11.949219 L 2.871094 -1.152344 L 8.566406 -1.152344 L 8.566406 0 Z M 1.535156 0 "/></g></g></g><g fill="#ffffff" fill-opacity="1"><g transform="translate(71.312232, 16.444732)"><g><path d="M 1.535156 0 L 1.535156 -11.949219 L 9.042969 -11.949219 L 9.042969 -10.796875 L 2.871094 -10.796875 L 2.871094 -6.765625 L 8.011719 -6.765625 L 8.011719 -5.613281 L 2.871094 -5.613281 L 2.871094 -1.152344 L 9.042969 -1.152344 L 9.042969 0 Z M 1.535156 0 "/></g></g></g><g fill="#ffffff" fill-opacity="1"><g transform="translate(94.57675, 16.444732)"><g><path d="M 4.828125 -4.796875 L 2.871094 -4.796875 L 2.871094 0 L 1.535156 0 L 1.535156 -11.949219 L 4.789062 -11.949219 C 5.777344 -11.949219 6.578125 -11.824219 7.195312 -11.566406 C 7.8125 -11.3125 8.269531 -10.945312 8.5625 -10.464844 C 8.855469 -9.980469 9 -9.394531 9 -8.707031 L 9 -8.011719 C 9 -7.363281 8.839844 -6.796875 8.519531 -6.316406 C 8.199219 -5.832031 7.730469 -5.457031 7.113281 -5.195312 C 6.496094 -4.929688 5.734375 -4.796875 4.828125 -4.796875 Z M 4.761719 -10.796875 L 2.871094 -10.796875 L 2.871094 -5.949219 L 4.773438 -5.949219 C 5.757812 -5.949219 6.480469 -6.140625 6.941406 -6.527344 C 7.40625 -6.910156 7.636719 -7.417969 7.636719 -8.046875 L 7.636719 -8.671875 C 7.636719 -9.09375 7.546875 -9.46875 7.359375 -9.785156 C 7.171875 -10.105469 6.871094 -10.355469 6.453125 -10.53125 C 6.035156 -10.707031 5.472656 -10.796875 4.761719 -10.796875 Z M 4.761719 -10.796875 "/></g></g></g><g fill="#ffffff" fill-opacity="1"><g transform="translate(117.807138, 16.444732)"><g><path d="M 1.535156 0 L 1.535156 -11.949219 L 2.871094 -11.949219 L 2.871094 -1.152344 L 8.566406 -1.152344 L 8.566406 0 Z M 1.535156 0 "/></g></g></g><g fill="#ffffff" fill-opacity="1"><g transform="translate(140.218524, 16.444732)"><g><path d="M 7.585938 -4.253906 L 5.398438 -10.296875 L 3.207031 -4.253906 Z M 9.09375 0 L 7.972656 -3.101562 L 2.84375 -3.101562 L 1.710938 0 L 0.3125 0 L 4.738281 -11.949219 L 6.136719 -11.949219 L 10.542969 0 Z M 9.09375 0 "/></g></g></g><g fill="#ffffff" fill-opacity="1"><g transform="translate(164.728621, 16.444732)"><g><path d="M 5.582031 0 L 4.246094 0 L 4.246094 -4.796875 L 0.136719 -11.949219 L 1.636719 -11.949219 L 4.957031 -6.054688 L 8.257812 -11.949219 L 9.699219 -11.949219 L 5.582031 -4.769531 Z M 5.582031 0 "/></g></g></g></g></g><path fill="#ffffff" d="M 183.257812 141.171875 L 154.519531 203.945312 L 208.976562 179.363281 L 202.585938 145.984375 L 183.257812 141.171875 " fill-opacity="1" fill-rule="nonzero"/><path fill="#ffffff" d="M 183.90625 139.757812 L 202.269531 144.332031 L 196.238281 112.824219 Z M 183.90625 139.757812 " fill-opacity="1" fill-rule="nonzero"/><path fill="#ffffff" d="M 220.132812 229.523438 L 220.132812 176 L 210.703125 180.257812 Z M 220.132812 229.523438 " fill-opacity="1" fill-rule="nonzero"/><path fill="#ffffff" d="M 197.757812 112.632812 L 203.902344 144.738281 L 238.472656 153.347656 Z M 197.757812 112.632812 " fill-opacity="1" fill-rule="nonzero"/><g clip-path="url(#a092ea1d9c)"><path fill="#ffffff" d="M 154.796875 205.496094 L 219.863281 236.246094 L 209.269531 180.902344 Z M 154.796875 205.496094 " fill-opacity="1" fill-rule="nonzero"/></g><path fill="#ffffff" d="M 136.371094 161.96875 L 163.035156 135.304688 L 156.238281 101.839844 Z M 136.371094 161.96875 " fill-opacity="1" fill-rule="nonzero"/><g clip-path="url(#977a36ee04)"><path fill="#ffffff" d="M 204.21875 146.390625 L 210.40625 178.714844 L 220.457031 174.175781 L 239.464844 155.167969 L 204.21875 146.390625 " fill-opacity="1" fill-rule="nonzero"/></g><g clip-path="url(#cfde9cf7b1)"><path fill="#ffffff" d="M 182.398438 139.378906 L 195.472656 110.824219 L 157.414062 99.949219 L 164.519531 134.925781 L 182.398438 139.378906 " fill-opacity="1" fill-rule="nonzero"/></g><g clip-path="url(#6bc5d1d0e1)"><path fill="#ffffff" d="M 181.75 140.796875 L 164.101562 136.398438 L 135.546875 164.953125 L 152.980469 203.632812 L 181.75 140.796875 " fill-opacity="1" fill-rule="nonzero"/></g></svg>