<svg xmlns="http://www.w3.org/2000/svg" xmlns:xlink="http://www.w3.org/1999/xlink" width="500" zoomAndPan="magnify" viewBox="0 0 375 374.999991" height="500" preserveAspectRatio="xMidYMid meet" version="1.0"><defs><g/><clipPath id="1faf2e309e"><rect x="0" width="189" y="0" height="22"/></clipPath><clipPath id="cef64a2ddd"><path d="M 154 166 L 220 166 L 220 222.460938 L 154 222.460938 Z M 154 166 " clip-rule="nonzero"/></clipPath><clipPath id="68f86d39c1"><path d="M 204 132 L 239.785156 132 L 239.785156 165 L 204 165 Z M 204 132 " clip-rule="nonzero"/></clipPath><clipPath id="4c1f646a22"><path d="M 157 85.960938 L 196 85.960938 L 196 126 L 157 126 Z M 157 85.960938 " clip-rule="nonzero"/></clipPath><clipPath id="69d55b5989"><path d="M 135.535156 122 L 182 122 L 182 190 L 135.535156 190 Z M 135.535156 122 " clip-rule="nonzero"/></clipPath><clipPath id="61bada1262"><rect x="0" width="178" y="0" height="45"/></clipPath></defs><g transform="matrix(1, 0, 0, 1, 100, 268)"><g clip-path="url(#1faf2e309e)"><g fill="#cb102c" fill-opacity="1"><g transform="translate(0.409609, 16.437153)"><g><path d="M 4.761719 -10.796875 L 2.871094 -10.796875 L 2.871094 -5.949219 L 4.773438 -5.949219 C 5.757812 -5.949219 6.480469 -6.140625 6.941406 -6.527344 C 7.40625 -6.910156 7.636719 -7.417969 7.636719 -8.046875 L 7.636719 -8.671875 C 7.636719 -9.09375 7.546875 -9.46875 7.359375 -9.785156 C 7.171875 -10.105469 6.871094 -10.355469 6.453125 -10.53125 C 6.035156 -10.707031 5.472656 -10.796875 4.761719 -10.796875 Z M 2.871094 -4.796875 L 2.871094 0 L 1.535156 0 L 1.535156 -11.949219 L 4.789062 -11.949219 C 5.777344 -11.949219 6.578125 -11.824219 7.195312 -11.566406 C 7.8125 -11.3125 8.269531 -10.945312 8.5625 -10.464844 C 8.855469 -9.980469 9 -9.394531 9 -8.707031 L 9 -8.011719 C 9 -7.253906 8.773438 -6.609375 8.320312 -6.082031 C 7.867188 -5.550781 7.1875 -5.191406 6.277344 -5.003906 L 9.433594 0 L 7.929688 0 L 4.949219 -4.796875 Z M 2.871094 -4.796875 "/></g></g></g><g fill="#cb102c" fill-opacity="1"><g transform="translate(23.998313, 16.437153)"><g><path d="M 5.628906 0.171875 C 4.714844 0.171875 3.921875 0.0078125 3.25 -0.320312 C 2.582031 -0.648438 2.0625 -1.140625 1.691406 -1.789062 C 1.324219 -2.4375 1.140625 -3.242188 1.140625 -4.195312 L 1.140625 -7.734375 C 1.140625 -8.699219 1.324219 -9.503906 1.691406 -10.152344 C 2.0625 -10.804688 2.582031 -11.292969 3.25 -11.625 C 3.921875 -11.957031 4.714844 -12.121094 5.628906 -12.121094 C 6.542969 -12.121094 7.335938 -11.957031 8.003906 -11.625 C 8.671875 -11.292969 9.191406 -10.804688 9.558594 -10.160156 C 9.929688 -9.511719 10.113281 -8.707031 10.113281 -7.746094 L 10.113281 -4.207031 C 10.113281 -3.25 9.929688 -2.449219 9.558594 -1.792969 C 9.191406 -1.140625 8.671875 -0.648438 8.003906 -0.320312 C 7.335938 0.0078125 6.542969 0.171875 5.628906 0.171875 Z M 5.628906 -10.96875 C 4.570312 -10.96875 3.785156 -10.675781 3.269531 -10.089844 C 2.757812 -9.503906 2.5 -8.71875 2.5 -7.734375 L 2.5 -4.191406 C 2.5 -3.222656 2.757812 -2.445312 3.269531 -1.859375 C 3.785156 -1.273438 4.570312 -0.980469 5.628906 -0.980469 C 6.683594 -0.980469 7.46875 -1.273438 7.980469 -1.859375 C 8.492188 -2.445312 8.75 -3.230469 8.75 -4.210938 L 8.75 -7.753906 C 8.75 -8.726562 8.492188 -9.503906 7.980469 -10.089844 C 7.46875 -10.675781 6.683594 -10.96875 5.628906 -10.96875 Z M 5.628906 -10.96875 "/></g></g></g><g fill="#cb102c" fill-opacity="1"><g transform="translate(48.900846, 16.437153)"><g><path d="M 1.535156 0 L 1.535156 -11.949219 L 2.871094 -11.949219 L 2.871094 -1.152344 L 8.566406 -1.152344 L 8.566406 0 Z M 1.535156 0 "/></g></g></g><g fill="#cb102c" fill-opacity="1"><g transform="translate(71.312232, 16.437153)"><g><path d="M 1.535156 0 L 1.535156 -11.949219 L 9.042969 -11.949219 L 9.042969 -10.796875 L 2.871094 -10.796875 L 2.871094 -6.765625 L 8.011719 -6.765625 L 8.011719 -5.613281 L 2.871094 -5.613281 L 2.871094 -1.152344 L 9.042969 -1.152344 L 9.042969 0 Z M 1.535156 0 "/></g></g></g><g fill="#cb102c" fill-opacity="1"><g transform="translate(94.57675, 16.437153)"><g><path d="M 4.828125 -4.796875 L 2.871094 -4.796875 L 2.871094 0 L 1.535156 0 L 1.535156 -11.949219 L 4.789062 -11.949219 C 5.777344 -11.949219 6.578125 -11.824219 7.195312 -11.566406 C 7.8125 -11.3125 8.269531 -10.945312 8.5625 -10.464844 C 8.855469 -9.980469 9 -9.394531 9 -8.707031 L 9 -8.011719 C 9 -7.363281 8.839844 -6.796875 8.519531 -6.316406 C 8.199219 -5.832031 7.730469 -5.457031 7.113281 -5.195312 C 6.496094 -4.929688 5.734375 -4.796875 4.828125 -4.796875 Z M 4.761719 -10.796875 L 2.871094 -10.796875 L 2.871094 -5.949219 L 4.773438 -5.949219 C 5.757812 -5.949219 6.480469 -6.140625 6.941406 -6.527344 C 7.40625 -6.910156 7.636719 -7.417969 7.636719 -8.046875 L 7.636719 -8.671875 C 7.636719 -9.09375 7.546875 -9.46875 7.359375 -9.785156 C 7.171875 -10.105469 6.871094 -10.355469 6.453125 -10.53125 C 6.035156 -10.707031 5.472656 -10.796875 4.761719 -10.796875 Z M 4.761719 -10.796875 "/></g></g></g><g fill="#cb102c" fill-opacity="1"><g transform="translate(117.807138, 16.437153)"><g><path d="M 1.535156 0 L 1.535156 -11.949219 L 2.871094 -11.949219 L 2.871094 -1.152344 L 8.566406 -1.152344 L 8.566406 0 Z M 1.535156 0 "/></g></g></g><g fill="#cb102c" fill-opacity="1"><g transform="translate(140.218524, 16.437153)"><g><path d="M 7.585938 -4.253906 L 5.398438 -10.296875 L 3.207031 -4.253906 Z M 9.09375 0 L 7.972656 -3.101562 L 2.84375 -3.101562 L 1.710938 0 L 0.3125 0 L 4.738281 -11.949219 L 6.136719 -11.949219 L 10.542969 0 Z M 9.09375 0 "/></g></g></g><g fill="#cb102c" fill-opacity="1"><g transform="translate(164.728621, 16.437153)"><g><path d="M 5.582031 0 L 4.246094 0 L 4.246094 -4.796875 L 0.136719 -11.949219 L 1.636719 -11.949219 L 4.957031 -6.054688 L 8.257812 -11.949219 L 9.699219 -11.949219 L 5.582031 -4.769531 Z M 5.582031 0 "/></g></g></g></g></g><path fill="#cb102c" d="M 183.257812 127.179688 L 154.519531 189.953125 L 208.976562 165.367188 L 202.585938 131.992188 L 183.257812 127.179688 " fill-opacity="1" fill-rule="nonzero"/><path fill="#cb102c" d="M 183.90625 125.765625 L 202.269531 130.335938 L 196.238281 98.832031 Z M 183.90625 125.765625 " fill-opacity="1" fill-rule="nonzero"/><path fill="#cb102c" d="M 220.132812 215.53125 L 220.132812 162.007812 L 210.703125 166.265625 Z M 220.132812 215.53125 " fill-opacity="1" fill-rule="nonzero"/><path fill="#cb102c" d="M 197.757812 98.640625 L 203.902344 130.746094 L 238.472656 139.355469 Z M 197.757812 98.640625 " fill-opacity="1" fill-rule="nonzero"/><g clip-path="url(#cef64a2ddd)"><path fill="#cb102c" d="M 154.796875 191.503906 L 219.863281 222.253906 L 209.269531 166.910156 Z M 154.796875 191.503906 " fill-opacity="1" fill-rule="nonzero"/></g><path fill="#cb102c" d="M 136.371094 147.976562 L 163.035156 121.3125 L 156.238281 87.847656 Z M 136.371094 147.976562 " fill-opacity="1" fill-rule="nonzero"/><g clip-path="url(#68f86d39c1)"><path fill="#cb102c" d="M 204.21875 132.398438 L 210.40625 164.722656 L 220.457031 160.183594 L 239.464844 141.175781 L 204.21875 132.398438 " fill-opacity="1" fill-rule="nonzero"/></g><g clip-path="url(#4c1f646a22)"><path fill="#cb102c" d="M 182.398438 125.386719 L 195.472656 96.832031 L 157.414062 85.957031 L 164.519531 120.933594 L 182.398438 125.386719 " fill-opacity="1" fill-rule="nonzero"/></g><g clip-path="url(#69d55b5989)"><path fill="#cb102c" d="M 181.75 126.804688 L 164.101562 122.40625 L 135.546875 150.960938 L 152.980469 189.640625 L 181.75 126.804688 " fill-opacity="1" fill-rule="nonzero"/></g><g transform="matrix(1, 0, 0, 1, 99, 230)"><g clip-path="url(#61bada1262)"><g fill="#cb102c" fill-opacity="1"><g transform="translate(1.372605, 34.736127)"><g><path d="M 9.660156 -22.429688 C 8.484375 -22.429688 7.554688 -22.261719 6.871094 -21.925781 C 6.183594 -21.589844 5.691406 -21.140625 5.394531 -20.570312 C 5.097656 -20.003906 4.953125 -19.351562 4.953125 -18.617188 C 4.953125 -17.835938 5.082031 -17.199219 5.34375 -16.707031 C 5.601562 -16.214844 6.050781 -15.792969 6.683594 -15.433594 C 7.320312 -15.074219 8.175781 -14.691406 9.25 -14.285156 L 11.828125 -13.328125 C 13.394531 -12.757812 14.621094 -12.148438 15.503906 -11.503906 C 16.386719 -10.855469 17.007812 -10.121094 17.367188 -9.300781 C 17.722656 -8.476562 17.902344 -7.496094 17.902344 -6.351562 C 17.902344 -4.226562 17.28125 -2.578125 16.03125 -1.40625 C 14.78125 -0.234375 12.808594 0.347656 10.105469 0.347656 C 7.503906 0.347656 5.488281 -0.253906 4.066406 -1.457031 C 2.640625 -2.660156 1.796875 -4.523438 1.527344 -7.046875 L 4.171875 -7.046875 C 4.398438 -5.359375 4.976562 -4.097656 5.90625 -3.261719 C 6.835938 -2.425781 8.238281 -2.007812 10.113281 -2.007812 C 11.878906 -2.007812 13.15625 -2.359375 13.941406 -3.054688 C 14.722656 -3.753906 15.117188 -4.816406 15.117188 -6.246094 C 15.117188 -7.019531 14.988281 -7.675781 14.734375 -8.214844 C 14.476562 -8.753906 14.03125 -9.238281 13.394531 -9.671875 C 12.757812 -10.101562 11.859375 -10.527344 10.707031 -10.945312 L 8.136719 -11.890625 C 6.683594 -12.433594 5.519531 -12.988281 4.640625 -13.554688 C 3.761719 -14.117188 3.128906 -14.796875 2.742188 -15.589844 C 2.359375 -16.382812 2.164062 -17.378906 2.164062 -18.570312 C 2.164062 -19.75 2.421875 -20.804688 2.9375 -21.738281 C 3.449219 -22.667969 4.261719 -23.410156 5.367188 -23.960938 C 6.476562 -24.511719 7.90625 -24.785156 9.660156 -24.785156 C 12.210938 -24.785156 14.136719 -24.152344 15.429688 -22.890625 C 16.722656 -21.625 17.402344 -19.785156 17.464844 -17.371094 L 14.824219 -17.371094 C 14.730469 -19.070312 14.289062 -20.339844 13.496094 -21.175781 C 12.707031 -22.011719 11.425781 -22.429688 9.660156 -22.429688 Z M 9.660156 -22.429688 "/></g></g></g><g fill="#cb102c" fill-opacity="1"><g transform="translate(21.830615, 34.736127)"><g><path d="M 16.890625 -24.4375 L 19.679688 -24.4375 L 19.679688 -8.054688 C 19.679688 -5.339844 18.910156 -3.261719 17.378906 -1.816406 C 15.84375 -0.371094 13.785156 0.347656 11.203125 0.347656 C 8.648438 0.347656 6.601562 -0.371094 5.066406 -1.816406 C 3.53125 -3.261719 2.765625 -5.339844 2.765625 -8.054688 L 2.765625 -24.4375 L 5.554688 -24.4375 L 5.554688 -8.0625 C 5.554688 -6.265625 6.019531 -4.808594 6.953125 -3.6875 C 7.882812 -2.570312 9.300781 -2.007812 11.203125 -2.007812 C 13.144531 -2.007812 14.578125 -2.570312 15.503906 -3.6875 C 16.429688 -4.808594 16.890625 -6.265625 16.890625 -8.0625 Z M 16.890625 -24.4375 "/></g></g></g><g fill="#cb102c" fill-opacity="1"><g transform="translate(45.04662, 34.736127)"><g><path d="M 17.203125 0 L 5.808594 -20.289062 L 5.808594 0 L 3.140625 0 L 3.140625 -24.4375 L 6.386719 -24.4375 L 17.777344 -4.128906 L 17.777344 -24.4375 L 20.445312 -24.4375 L 20.445312 0 Z M 17.203125 0 "/></g></g></g><g fill="#cb102c" fill-opacity="1"><g transform="translate(69.414701, 34.736127)"><g><path d="M 9.660156 -22.429688 C 8.484375 -22.429688 7.554688 -22.261719 6.871094 -21.925781 C 6.183594 -21.589844 5.691406 -21.140625 5.394531 -20.570312 C 5.097656 -20.003906 4.953125 -19.351562 4.953125 -18.617188 C 4.953125 -17.835938 5.082031 -17.199219 5.34375 -16.707031 C 5.601562 -16.214844 6.050781 -15.792969 6.683594 -15.433594 C 7.320312 -15.074219 8.175781 -14.691406 9.25 -14.285156 L 11.828125 -13.328125 C 13.394531 -12.757812 14.621094 -12.148438 15.503906 -11.503906 C 16.386719 -10.855469 17.007812 -10.121094 17.367188 -9.300781 C 17.722656 -8.476562 17.902344 -7.496094 17.902344 -6.351562 C 17.902344 -4.226562 17.28125 -2.578125 16.03125 -1.40625 C 14.78125 -0.234375 12.808594 0.347656 10.105469 0.347656 C 7.503906 0.347656 5.488281 -0.253906 4.066406 -1.457031 C 2.640625 -2.660156 1.796875 -4.523438 1.527344 -7.046875 L 4.171875 -7.046875 C 4.398438 -5.359375 4.976562 -4.097656 5.90625 -3.261719 C 6.835938 -2.425781 8.238281 -2.007812 10.113281 -2.007812 C 11.878906 -2.007812 13.15625 -2.359375 13.941406 -3.054688 C 14.722656 -3.753906 15.117188 -4.816406 15.117188 -6.246094 C 15.117188 -7.019531 14.988281 -7.675781 14.734375 -8.214844 C 14.476562 -8.753906 14.03125 -9.238281 13.394531 -9.671875 C 12.757812 -10.101562 11.859375 -10.527344 10.707031 -10.945312 L 8.136719 -11.890625 C 6.683594 -12.433594 5.519531 -12.988281 4.640625 -13.554688 C 3.761719 -14.117188 3.128906 -14.796875 2.742188 -15.589844 C 2.359375 -16.382812 2.164062 -17.378906 2.164062 -18.570312 C 2.164062 -19.75 2.421875 -20.804688 2.9375 -21.738281 C 3.449219 -22.667969 4.261719 -23.410156 5.367188 -23.960938 C 6.476562 -24.511719 7.90625 -24.785156 9.660156 -24.785156 C 12.210938 -24.785156 14.136719 -24.152344 15.429688 -22.890625 C 16.722656 -21.625 17.402344 -19.785156 17.464844 -17.371094 L 14.824219 -17.371094 C 14.730469 -19.070312 14.289062 -20.339844 13.496094 -21.175781 C 12.707031 -22.011719 11.425781 -22.429688 9.660156 -22.429688 Z M 9.660156 -22.429688 "/></g></g></g><g fill="#cb102c" fill-opacity="1"><g transform="translate(89.87271, 34.736127)"><g><path d="M 17.765625 -22.078125 L 10.511719 -22.078125 L 10.511719 0 L 7.777344 0 L 7.777344 -22.078125 L 0.464844 -22.078125 L 0.464844 -24.4375 L 17.765625 -24.4375 Z M 17.765625 -22.078125 "/></g></g></g><g fill="#cb102c" fill-opacity="1"><g transform="translate(108.864449, 34.736127)"><g><path d="M 11.507812 0.347656 C 9.640625 0.347656 8.023438 0.0117188 6.648438 -0.65625 C 5.277344 -1.328125 4.214844 -2.328125 3.460938 -3.660156 C 2.707031 -4.988281 2.328125 -6.628906 2.328125 -8.582031 L 2.328125 -15.820312 C 2.328125 -17.789062 2.707031 -19.4375 3.460938 -20.765625 C 4.214844 -22.09375 5.277344 -23.097656 6.648438 -23.773438 C 8.023438 -24.449219 9.640625 -24.785156 11.507812 -24.785156 C 13.382812 -24.785156 15.003906 -24.449219 16.371094 -23.773438 C 17.734375 -23.097656 18.792969 -22.097656 19.546875 -20.777344 C 20.304688 -19.453125 20.679688 -17.808594 20.679688 -15.84375 L 20.679688 -8.601562 C 20.679688 -6.648438 20.304688 -5.003906 19.546875 -3.667969 C 18.792969 -2.332031 17.734375 -1.328125 16.371094 -0.65625 C 15.003906 0.0117188 13.382812 0.347656 11.507812 0.347656 Z M 11.507812 -22.429688 C 9.34375 -22.429688 7.738281 -21.832031 6.6875 -20.632812 C 5.640625 -19.433594 5.117188 -17.828125 5.117188 -15.8125 L 5.117188 -8.566406 C 5.117188 -6.589844 5.640625 -5.003906 6.6875 -3.804688 C 7.738281 -2.609375 9.34375 -2.007812 11.507812 -2.007812 C 13.667969 -2.007812 15.269531 -2.609375 16.320312 -3.804688 C 17.367188 -5.003906 17.894531 -6.605469 17.894531 -8.609375 L 17.894531 -15.855469 C 17.894531 -17.84375 17.367188 -19.433594 16.320312 -20.632812 C 15.269531 -21.832031 13.667969 -22.429688 11.507812 -22.429688 Z M 11.507812 -22.429688 "/></g></g></g><g fill="#cb102c" fill-opacity="1"><g transform="translate(132.639037, 34.736127)"><g><path d="M 17.203125 0 L 5.808594 -20.289062 L 5.808594 0 L 3.140625 0 L 3.140625 -24.4375 L 6.386719 -24.4375 L 17.777344 -4.128906 L 17.777344 -24.4375 L 20.445312 -24.4375 L 20.445312 0 Z M 17.203125 0 "/></g></g></g><g fill="#cb102c" fill-opacity="1"><g transform="translate(157.007117, 34.736127)"><g><path d="M 3.140625 0 L 3.140625 -24.4375 L 18.492188 -24.4375 L 18.492188 -22.078125 L 5.875 -22.078125 L 5.875 -13.835938 L 16.382812 -13.835938 L 16.382812 -11.476562 L 5.875 -11.476562 L 5.875 -2.359375 L 18.492188 -2.359375 L 18.492188 0 Z M 3.140625 0 "/></g></g></g></g></g></svg>